<?xml version="1.0" encoding="UTF-8"?>
<svg id="Layer_1" data-name="Layer 1" xmlns="http://www.w3.org/2000/svg" viewBox="0 0 500 500">
  <defs>
    <style>
      .cls-1 {
        fill: #666d70;
      }

      .cls-1, .cls-2, .cls-3 {
        stroke-width: 0px;
      }

      .cls-2 {
        fill: #fff;
      }

      .cls-3 {
        fill: #232628;
      }
    </style>
  </defs>
  <g>
    <g>
      <path class="cls-3" d="m45.21,270.44v-41.61h15.36c12.7,0,20.56,7.8,20.56,20.78s-7.86,20.83-20.54,20.83h-15.38Zm14.99-8.57c7.01,0,10.85-3.25,10.85-12.25s-3.84-12.21-10.99-12.21h-4.79v24.46h4.94Z"/>
      <path class="cls-3" d="m106.4,271.01c-11.22,0-19.85-7.68-19.85-21.37s8.64-21.37,19.85-21.37,19.87,7.62,19.87,21.37-8.7,21.37-19.87,21.37Zm0-33.93c-5.99,0-9.59,4.41-9.59,12.56s3.6,12.56,9.59,12.56,9.59-4.41,9.59-12.56-3.58-12.56-9.59-12.56Z"/>
      <path class="cls-3" d="m144.59,228.83l10.57,25.76h.49l10.57-25.76h12.45v41.61h-9.79v-25.56h-.35l-10,25.3h-6.26l-10-25.44h-.34v25.7h-9.79v-41.61h12.45Z"/>
      <path class="cls-3" d="m196.01,270.44h-10.06v-41.61h10.06v41.61Z"/>
      <path class="cls-3" d="m238.7,270.44h-8.53l-16.56-24.02h-.26v24.02h-10.06v-41.61h8.65l16.38,23.97h.35v-23.97h10.04v41.61Z"/>
    </g>
    <g>
      <path class="cls-3" d="m394.3,271.01c-11.22,0-19.85-7.68-19.85-21.37s8.63-21.37,19.85-21.37,19.87,7.62,19.87,21.37-8.7,21.37-19.87,21.37Zm0-33.93c-5.99,0-9.59,4.41-9.59,12.56s3.6,12.56,9.59,12.56,9.59-4.41,9.59-12.56-3.58-12.56-9.59-12.56Z"/>
      <path class="cls-3" d="m421.01,228.83h17.19c9.35,0,15.18,5.3,15.18,13.86,0,5.75-2.64,9.83-7.21,11.91l8.63,15.85h-10.97l-7.6-14.24h-5.16v14.24h-10.06v-41.61Zm15.01,19.44c4.51,0,6.93-1.73,6.93-5.59s-2.42-5.75-6.93-5.75h-4.96v11.34h4.96Z"/>
    </g>
  </g>
  <g>
    <path class="cls-3" d="m365.63,224.46v51.09c0,3.42-2.77,6.19-6.19,6.19h-103.18c-3.41,0-6.18-2.77-6.18-6.19v-51.09c0-3.42,2.77-6.19,6.18-6.19h103.18c3.42,0,6.19,2.77,6.19,6.19Z"/>
    <rect class="cls-1" x="305.18" y="224.5" width="5.33" height="51" rx="2.66" ry="2.66"/>
    <g>
      <path class="cls-2" d="m333.37,271.74v-34.72h-11.52l3.07-8.48h18.75v43.2h-10.29Z"/>
      <path class="cls-1" d="m347.11,228.54h4.34s3.07,8.48,3.07,8.48h-7.41v-8.48Z"/>
    </g>
    <path class="cls-2" d="m260.04,249.7c.02-13.67,6.68-21.44,17.58-21.44s17.62,7.78,17.6,21.44c-.02,13.73-6.71,21.78-17.6,21.76-10.89,0-17.62-8.07-17.58-21.76Zm24.83,0c-.02-9-2.93-13.27-7.25-13.27s-7.21,4.27-7.23,13.27c-.04,9.18,2.91,13.53,7.23,13.53s7.27-4.35,7.25-13.53Z"/>
  </g>
</svg>